<svg width="100" height="100" viewBox="0 0 100 100" xmlns="http://www.w3.org/2000/svg">
  <defs>
    <linearGradient id="bearGradient" x1="0%" y1="0%" x2="100%" y2="100%">
      <stop offset="0%" style="stop-color:#D2691E;stop-opacity:1" />
      <stop offset="100%" style="stop-color:#8B4513;stop-opacity:1" />
    </linearGradient>
  </defs>
  
  <!-- Bear body -->
  <ellipse cx="50" cy="65" rx="25" ry="20" fill="url(#bearGradient)" />
  
  <!-- Bear head -->
  <circle cx="50" cy="40" r="22" fill="url(#bearGradient)" />
  
  <!-- Bear ears -->
  <circle cx="38" cy="25" r="8" fill="url(#bearGradient)" />
  <circle cx="62" cy="25" r="8" fill="url(#bearGradient)" />
  <circle cx="38" cy="25" r="4" fill="#FFB6C1" />
  <circle cx="62" cy="25" r="4" fill="#FFB6C1" />
  
  <!-- Bear eyes -->
  <circle cx="44" cy="36" r="3" fill="#000" />
  <circle cx="56" cy="36" r="3" fill="#000" />
  <circle cx="45" cy="35" r="1" fill="#FFF" />
  <circle cx="57" cy="35" r="1" fill="#FFF" />
  
  <!-- Bear nose -->
  <ellipse cx="50" cy="44" rx="2" ry="1.5" fill="#000" />
  
  <!-- Bear mouth -->
  <path d="M 50 46 Q 48 48 46 46" stroke="#000" stroke-width="1.5" fill="none" stroke-linecap="round"/>
  <path d="M 50 46 Q 52 48 54 46" stroke="#000" stroke-width="1.5" fill="none" stroke-linecap="round"/>
  
  <!-- Bear arms -->
  <ellipse cx="28" cy="58" rx="6" ry="12" fill="url(#bearGradient)" transform="rotate(-20 28 58)" />
  <ellipse cx="72" cy="58" rx="6" ry="12" fill="url(#bearGradient)" transform="rotate(20 72 58)" />
  
  <!-- Bear legs -->
  <ellipse cx="42" cy="82" rx="5" ry="8" fill="url(#bearGradient)" />
  <ellipse cx="58" cy="82" rx="5" ry="8" fill="url(#bearGradient)" />
  
  <!-- Bear paws -->
  <circle cx="42" cy="88" r="4" fill="#8B4513" />
  <circle cx="58" cy="88" r="4" fill="#8B4513" />
  
  <!-- Highlight on nose -->
  <ellipse cx="49.5" cy="43.5" rx="0.8" ry="0.6" fill="#666" opacity="0.7" />
</svg>
